{"title":"Paolo Bediones Sex Scandal Video 2014 - PiZDOC","uid":10685599,"size":106693586,"categoryP":"porn","categoryS":"movie_clips","magnet":"?xt=urn:btih:c3631eb45e5161d41bda968cb5b95787071760e7&amp;dn=Paolo+Bediones+Sex+Scandal+Video+2014+-+PiZDOC&amp;tr=udp%3A%2F%2Ftracker.openbittorrent.com%3A80&amp;tr=udp%3A%2F%2Fopen.demonii.com%3A1337&amp;tr=udp%3A%2F%2Ftracker.coppersurfer.tk%3A6969&amp;tr=udp%3A%2F%2Fexodus.desync.com%3A6969","seeders":1,"leechers":1,"uploader":"iH2OSO4","files":-1,"time":1407077588,"description":"Television network TV5 expressed support for Paolo Bediones amid a sex video allegedly featuring the news anchor and host making the rounds on social media.\n\n&quot;The recent issue involving our news anchor, Paolo Bediones, on social media is a purely personal and private matter in which TV5 has no involvement or desire to intrude,&quot; TV5 said in the statement.\n\n&quot;We accord our employees and talents all respect that are due them for their privacy and personal action or decision.\n\n&quot;We disapprove strongly the malicious and wanton publication of the video, an act that clearly violates pertinent cybercrime laws.\n\n&quot;We firmly express our support for our anchor Paolo Bediones in the face of a controversy that represents nothing more than an attempt to smear his reputation.&quot;\n\nBediones' name was a trending topic on Twitter on Saturday because of the spread of a sex video allegedly featuring him and an unidentified woman.\n\nPaolo Bediones Sex Scandal Video 2014 - PiZDOC.mp4\n\nSource : &lt;a href=&quot; http://vasileturcu.ro/i/seev56.html&quot; rel=&quot;nofollow&quot; target=&quot;_NEW&quot;&gt; http://vasileturcu.ro/i/seev56.html&lt;/a&gt;\n\nFormat                           : MPEG-4\nFormat profile                   : Base Media\nCodec ID                         : isom\nFile size                        : 101 MiB\nDuration                         : 6mn 30s\nOverall bit rate                 : 2 172 Kbps\nEncoded date                     : UTC 2014-08-03 12:38:41\nTagged date                      : UTC 2014-08-03 12:38:41\n\nVideo\nID                               : 1\nFormat                           : MPEG-4 Visual\nFormat profile                   : Simple@L1\nFormat settings, BVOP            : No\nFormat settings, QPel            : No\nFormat settings, GMC             : No warppoints\nFormat settings, Matrix          : Default (H.263)\nCodec ID                         : 20\nDuration                         : 6mn 29s\nBit rate mode                    : Variable\nBit rate                         : 2 047 Kbps\nMaximum bit rate                 : 3 022 Kbps\nWidth                            : 640 pixels\nHeight                           : 480 pixels\nDisplay aspect ratio             : 4:3\nFrame rate mode                  : Constant\nFrame rate                       : 29.000 fps\nColor space                      : YUV\nChroma subsampling               : 4:2:0\nBit depth                        : 8 bits\nScan type                        : Progressive\nCompression mode                 : Lossy\nBits/(Pixel*Frame)               : 0.230\nStream size                      : 95.1 MiB (94%)\nWriting library                  : Lavc53.8.0\nEncoded date                     : UTC 2014-08-03 12:38:41\nTagged date                      : UTC 2014-08-03 12:38:44\n\nAudio\nID                               : 2\nFormat                           : AAC\nFormat/Info                      : Advanced Audio Codec\nFormat profile                   : LC\nCodec ID                         : 40\nDuration                         : 6mn 30s\nBit rate mode                    : Variable\nBit rate                         : 126 Kbps\nMaximum bit rate                 : 171 Kbps\nChannel(s)                       : 2 channels\nChannel positions                : Front: L R\nSampling rate                    : 44.1 KHz\nCompression mode                 : Lossy\nStream size                      : 5.84 MiB (6%)\nEncoded date                     : UTC 2014-08-03 12:38:43\nTagged date                      : UTC 2014-08-03 12:38:44\n\n\n","torrent":{"xt":"urn:btih:c3631eb45e5161d41bda968cb5b95787071760e7","amp;dn":"Paolo+Bediones+Sex+Scandal+Video+2014+-+PiZDOC","amp;tr":["udp%3A%2F%2Ftracker.openbittorrent.com%3A80","udp%3A%2F%2Fopen.demonii.com%3A1337","udp%3A%2F%2Ftracker.coppersurfer.tk%3A6969","udp%3A%2F%2Fexodus.desync.com%3A6969"],"infoHash":"c3631eb45e5161d41bda968cb5b95787071760e7","infoHashBuffer":{"type":"Buffer","data":[195,99,30,180,94,81,97,212,27,218,150,140,181,185,87,135,7,23,96,231]},"announce":[],"urlList":[]}}